HIERARCHY
ROOT Hips
{
	OFFSET 31.594500 4.855294 99.059799
	CHANNELS 6 Xposition Yposition Zposition Xrotation Yrotation Zrotation
	JOINT spine
	{
		OFFSET 0.000000 -0.477353 8.301041
		CHANNELS 3 Xrotation Yrotation Zrotation
		JOINT spine1
		{
			OFFSET 0.000000 -0.000001 10.456497
			CHANNELS 3 Xrotation Yrotation Zrotation
			JOINT spine2
			{
				OFFSET 0.000000 -0.000002 10.019203
				CHANNELS 3 Xrotation Yrotation Zrotation
				JOINT Neck
				{
					OFFSET 0.000000 -1.226414 25.723503
					CHANNELS 3 Xrotation Yrotation Zrotation
					JOINT Head
					{
						OFFSET 0.000000 -0.000001 7.771744
						CHANNELS 3 Xrotation Yrotation Zrotation
						End Site
						{
							OFFSET 0.000000 6.203937 18.811996
						}
					}
				}
				JOINT RightShoulder
				{
					OFFSET -4.218800 0.587438 10.820000
					CHANNELS 3 Xrotation Yrotation Zrotation
					JOINT RightArm
					{
						OFFSET 0.000000 -0.000002 14.191406
						CHANNELS 3 Xrotation Yrotation Zrotation
						JOINT RightArmRoll
						{
							OFFSET 0.000000 -0.000001 7.164078
							CHANNELS 3 Xrotation Yrotation Zrotation
							JOINT RightForeArm
							{
								OFFSET 0.000000 -0.000003 20.866501
								CHANNELS 3 Xrotation Yrotation Zrotation
								JOINT RightForeArmRoll
								{
									OFFSET 0.000000 -0.000001 8.039215
									CHANNELS 3 Xrotation Yrotation Zrotation
									JOINT RightHand
									{
										OFFSET 0.000000 -0.000002 16.132996
										CHANNELS 3 Xrotation Yrotation Zrotation
										End Site
										{
											OFFSET 0.000000 0.000000 0.100006
										}
									}
								}
							}
						}
					}
				}
				JOINT LeftShoulder
				{
					OFFSET 4.218801 0.587438 10.820000
					CHANNELS 3 Xrotation Yrotation Zrotation
					JOINT LeftArm
					{
						OFFSET 0.000000 -0.000002 14.191406
						CHANNELS 3 Xrotation Yrotation Zrotation
						JOINT LeftArmRoll
						{
							OFFSET 0.000000 -0.000001 7.164078
							CHANNELS 3 Xrotation Yrotation Zrotation
							JOINT LeftForeArm
							{
								OFFSET 0.000000 -0.000003 20.866501
								CHANNELS 3 Xrotation Yrotation Zrotation
								JOINT LeftForeArmRoll
								{
									OFFSET 0.000000 -0.000001 8.039215
									CHANNELS 3 Xrotation Yrotation Zrotation
									JOINT LeftHand
									{
										OFFSET 0.000000 -0.000002 16.132996
										CHANNELS 3 Xrotation Yrotation Zrotation
										End Site
										{
											OFFSET 0.000000 0.000000 0.100006
										}
									}
								}
							}
						}
					}
				}
			}
		}
	}
	JOINT RightUpLeg
	{
		OFFSET -7.357729 1.131810 -1.349213
		CHANNELS 3 Xrotation Yrotation Zrotation
		JOINT RightUpLegRoll
		{
			OFFSET 0.000000 -0.000003 18.916801
			CHANNELS 3 Xrotation Yrotation Zrotation
			JOINT RightLeg
			{
				OFFSET 0.000000 0.000004 -23.425598
				CHANNELS 3 Xrotation Yrotation Zrotation
				JOINT RightLegRoll
				{
					OFFSET 0.000000 -0.000004 23.502296
					CHANNELS 3 Xrotation Yrotation Zrotation
					JOINT RightFoot
					{
						OFFSET 0.000000 -0.000003 19.561707
						CHANNELS 3 Xrotation Yrotation Zrotation
						JOINT RightToeBase
						{
							OFFSET 0.000000 -0.000002 16.352600
							CHANNELS 3 Xrotation Yrotation Zrotation
							End Site
							{
								OFFSET 0.006931 0.912836 7.919434
							}
						}
					}
				}
			}
		}
	}
	JOINT LeftUpLeg
	{
		OFFSET 7.357729 1.131810 -1.349213
		CHANNELS 3 Xrotation Yrotation Zrotation
		JOINT LeftUpLegRoll
		{
			OFFSET 0.000000 -0.000003 18.916901
			CHANNELS 3 Xrotation Yrotation Zrotation
			JOINT LeftLeg
			{
				OFFSET 0.000000 -0.000004 23.425507
				CHANNELS 3 Xrotation Yrotation Zrotation
				JOINT LeftLegRoll
				{
					OFFSET 0.000000 -0.000004 23.719498
					CHANNELS 3 Xrotation Yrotation Zrotation
					JOINT LeftFoot
					{
						OFFSET 0.000000 -0.000003 19.344406
						CHANNELS 3 Xrotation Yrotation Zrotation
						JOINT LeftToeBase
						{
							OFFSET 0.000000 -0.000002 16.352600
							CHANNELS 3 Xrotation Yrotation Zrotation
							End Site
							{
								OFFSET -0.031063 0.912836 7.919434
							}
						}
					}
				}
			}
		}
	}
}
MOTION
Frames: 10
Frame Time: 0.041667
36.897797 -9.101818 98.959396 -3.695230 -0.461892 1.582680 -0.604443 -0.124063 0.186701 2.794323 -0.231698 0.374802 4.439405 -0.227192 0.377550 19.643583 0.394345 -1.878476 -6.422144 0.175324 -1.877976 -1.684043 -74.062466 -3.606538 -84.785474 -116.895204 -59.417298 0.000001 0.000009 -0.000002 0.060911 -7.863027 0.186732 -0.000009 0.000002 -3.022389 -5.000183 -7.998992 0.000133 10.468120 66.282273 -10.835167 -59.751431 109.369825 44.112244 -0.000003 -0.000001 -0.000001 7.715798 9.885408 -0.011329 0.000002 -0.000007 3.000002 -5.000201 7.998802 -0.000148 2.381300 -173.415648 2.766528 -179.999991 0.000007 -1.187997 174.753108 -3.728360 -0.629139 -0.000006 -0.000005 0.058319 68.624400 6.936949 2.052566 25.456938 -7.348747 -0.000002 1.841218 172.552818 -1.191192 -0.000005 -0.000004 -1.286250 -8.503048 3.002393 0.942558 -0.000001 0.000002 -0.100180 67.937918 -6.978419 -1.963213 25.456911 7.350043 -0.000004 
36.897095 -9.101397 98.961205 -3.686389 -0.459581 1.588481 -0.603201 -0.124048 0.186514 2.796824 -0.232520 0.374395 4.441896 -0.228018 0.377152 19.640668 0.387050 -1.878121 -6.441759 0.175034 -1.877667 -1.689503 -74.059222 -3.612132 -84.802645 -116.904452 -59.444728 0.000000 0.000009 0.000000 0.060910 -7.867057 0.189824 -0.000008 0.000002 -3.022049 -5.000182 -7.998993 0.000132 10.463507 66.280053 -10.830410 -59.778553 109.366150 44.126799 0.000002 -0.000002 0.000000 7.699094 9.878811 -0.010120 -0.000000 -0.000007 3.000001 -5.000200 7.998802 -0.000148 2.366938 -173.420579 2.760547 -179.999991 0.000006 -1.187997 174.744106 -3.725315 -0.629450 -0.000006 -0.000005 0.058442 68.620288 6.936967 2.052829 25.456936 -7.348748 -0.000003 1.817474 172.547709 -1.192347 -0.000005 -0.000005 -1.286280 -8.523284 3.003492 0.943316 -0.000001 0.000002 -0.100436 67.941094 -6.978457 -1.963320 25.456916 7.350043 -0.000003 
36.867596 -9.122496 98.956100 -3.678025 -0.457158 1.593913 -0.601911 -0.124025 0.186330 2.799394 -0.233343 0.374049 4.444466 -0.228846 0.376816 19.638247 0.379200 -1.877611 -6.461724 0.175162 -1.877221 -1.694595 -74.056784 -3.617397 -84.821852 -116.914028 -59.474227 0.000002 0.000010 0.000002 0.060911 -7.871017 0.192939 -0.000007 0.000001 -3.021711 -5.000182 -7.998992 0.000132 10.458626 66.277560 -10.825405 -59.803197 109.362988 44.138629 -0.000001 -0.000001 -0.000001 7.682793 9.872121 -0.008966 0.000001 -0.000007 3.000000 -5.000198 7.998801 -0.000148 2.353616 -173.426508 2.754234 -179.999991 0.000006 -1.187997 174.735801 -3.722272 -0.629714 -0.000006 -0.000005 0.058552 68.616702 6.936951 2.053050 25.456940 -7.348746 -0.000003 1.795169 172.542613 -1.193667 -0.000005 -0.000004 -1.286340 -8.542290 3.004598 0.943992 -0.000001 0.000003 -0.100667 67.944352 -6.978471 -1.963414 25.456914 7.350043 -0.000003 
36.871998 -9.114058 98.956398 -3.670014 -0.454658 1.599098 -0.600596 -0.123997 0.186147 2.802024 -0.234168 0.373746 4.447096 -0.229674 0.376523 19.636229 0.370961 -1.876996 -6.481932 0.175582 -1.876691 -1.699406 -74.054741 -3.622408 -84.842465 -116.923836 -59.505209 0.000002 0.000008 0.000000 0.060914 -7.874937 0.196068 -0.000007 0.000003 -3.021389 -5.000180 -7.998992 0.000132 10.453535 66.274862 -10.820218 -59.827888 109.359819 44.150500 0.000000 -0.000000 0.000000 7.666786 9.865347 -0.007837 0.000000 -0.000007 3.000001 -5.000200 7.998803 -0.000148 2.341019 -173.431439 2.747750 -179.999991 0.000005 -1.187997 174.727960 -3.719245 -0.630946 -0.000006 -0.000005 0.058656 68.613321 6.936948 2.053260 25.456940 -7.348745 -0.000003 1.773864 172.536534 -1.195132 -0.000004 -0.000004 -1.286410 -8.560425 3.005720 0.944611 -0.000001 0.000002 -0.100880 67.947712 -6.978450 -1.963598 25.456914 7.350041 -0.000002 
36.879795 -9.104931 98.954109 -3.662195 -0.452112 1.604133 -0.599264 -0.123967 0.185965 2.804695 -0.234992 0.373466 4.449766 -0.230501 0.376254 19.634412 0.362500 -1.876324 -6.502263 0.176168 -1.876101 -1.704067 -74.053013 -3.627273 -84.863734 -116.933918 -59.536703 0.000000 0.000008 -0.000000 0.060910 -7.878838 0.199208 -0.000007 0.000003 -3.021058 -5.000181 -7.998992 0.000130 10.448347 66.271987 -10.814926 -59.850106 109.357162 44.159861 -0.000001 -0.000001 0.000001 7.650949 9.858538 -0.006724 0.000000 -0.000007 3.000000 -5.000199 7.998802 -0.000148 2.328831 -173.437368 2.741114 -179.999991 0.000006 -1.187997 174.720405 -3.715216 -0.631069 -0.000006 -0.000005 0.058755 68.610165 6.936954 2.053462 25.456941 -7.348747 -0.000003 1.753117 172.531453 -1.196630 -0.000005 -0.000005 -1.286500 -8.578059 3.006836 0.945195 -0.000001 0.000003 -0.101083 67.951080 -6.978472 -1.963590 25.456912 7.350043 -0.000003 
36.878498 -9.108547 98.953300 -3.654422 -0.449553 1.609128 -0.597928 -0.123935 0.185784 2.807365 -0.235817 0.373193 4.452437 -0.231330 0.375992 19.632592 0.353983 -1.875623 -6.522643 0.176796 -1.875506 -1.708685 -74.051374 -3.632102 -84.885168 -116.943999 -59.568484 0.000003 0.000009 0.000001 0.060913 -7.882726 0.202352 -0.000007 0.000002 -3.020729 -5.000183 -7.998992 0.000131 10.443129 66.269098 -10.809613 -59.875050 109.353951 44.171998 -0.000002 -0.000001 -0.000001 7.635160 9.851727 -0.005623 0.000003 -0.000007 3.000001 -5.000200 7.998803 -0.000148 2.316755 -173.443310 2.734442 -179.999991 0.000006 -1.187997 174.712906 -3.712179 -0.631279 -0.000006 -0.000005 0.058852 68.607106 6.936933 2.053648 25.456936 -7.348747 -0.000002 1.732526 172.525387 -1.198172 -0.000005 -0.000004 -1.286580 -8.595581 3.007953 0.945773 -0.000001 0.000002 -0.101283 67.954549 -6.978421 -1.963760 25.456916 7.350044 -0.000004 
36.879299 -9.097715 98.951698 -3.646551 -0.447014 1.614202 -0.596603 -0.123905 0.185602 2.810025 -0.236641 0.372909 4.455097 -0.232157 0.375716 19.630771 0.345577 -1.874962 -6.542947 0.177341 -1.874940 -1.713389 -74.049632 -3.637011 -84.906403 -116.954094 -59.600046 0.000000 0.000009 0.000002 0.060909 -7.886626 0.205493 -0.000009 0.000002 -3.020411 -5.000181 -7.998992 0.000131 10.437980 66.266318 -10.804362 -59.899250 109.350898 44.183343 0.000000 -0.000001 -0.000001 7.619284 9.844924 -0.004514 0.000001 -0.000007 3.000000 -5.000200 7.998803 -0.000148 2.304454 -173.449253 2.727828 -179.999991 0.000006 -1.187997 174.705256 -3.708160 -0.631405 -0.000006 -0.000005 0.058952 68.603848 6.936970 2.053761 25.456936 -7.348748 -0.000003 1.711636 172.520306 -1.199645 -0.000005 -0.000003 -1.286660 -8.613347 3.009078 0.946370 -0.000001 0.000002 -0.101489 67.957917 -6.978444 -1.963852 25.456916 7.350044 -0.000004 
36.872597 -9.096928 98.948906 -3.638441 -0.444530 1.619453 -0.595293 -0.123878 0.185418 2.812645 -0.237466 0.372593 4.457707 -0.232985 0.375412 19.628557 0.337448 -1.874378 -6.563086 0.177675 -1.874429 -1.718275 -74.047488 -3.642091 -84.926340 -116.963834 -59.630277 0.000001 0.000009 -0.000000 0.060911 -7.890566 0.208617 -0.000009 0.000002 -3.020080 -5.000184 -7.998992 0.000131 10.432945 66.263620 -10.799216 -59.923852 109.347893 44.195217 0.000000 -0.000001 -0.000000 7.603202 9.838175 -0.003391 0.000001 -0.000008 3.000001 -5.000200 7.998804 -0.000147 2.291657 -173.455195 2.721380 -179.999991 0.000005 -1.187997 174.697292 -3.705121 -0.631644 -0.000006 -0.000005 0.059059 68.600467 6.936966 2.053970 25.456936 -7.348748 -0.000002 1.690038 172.514227 -1.201059 -0.000005 -0.000004 -1.286730 -8.631731 3.010188 0.947006 -0.000001 0.000002 -0.101707 67.961181 -6.978451 -1.963947 25.456918 7.350043 -0.000003 
36.883797 -9.090988 98.948105 -3.629938 -0.442131 1.624992 -0.594019 -0.123858 0.185233 2.815195 -0.238288 0.372230 4.460258 -0.233813 0.375058 19.626043 0.329764 -1.873922 -6.582941 0.177675 -1.874026 -1.723457 -74.044749 -3.647433 -84.944836 -116.973355 -59.659018 0.000002 0.000009 0.000000 0.060910 -7.894548 0.211726 -0.000010 0.000002 -3.019741 -5.000181 -7.998993 0.000131 10.428138 66.261222 -10.794288 -59.949322 109.344587 44.207921 0.000002 -0.000001 0.000001 7.586779 9.831513 -0.002240 0.000001 -0.000007 3.000001 -5.000200 7.998802 -0.000148 2.278024 -173.460126 2.715219 -179.999991 0.000006 -1.187997 174.688782 -3.702076 -0.632914 -0.000006 -0.000005 0.059173 68.596676 6.936967 2.054210 25.456938 -7.348747 -0.000003 1.667303 172.509132 -1.202304 -0.000005 -0.000004 -1.286780 -8.651096 3.011299 0.947712 -0.000001 0.000002 -0.101947 67.964446 -6.978461 -1.964042 25.456914 7.350043 -0.000004 
36.883297 -9.089890 98.947998 -3.620898 -0.439852 1.630936 -0.592790 -0.123846 0.185045 2.817655 -0.239111 0.371799 4.462717 -0.234639 0.374638 19.622929 0.322692 -1.873630 -6.602425 0.177216 -1.873768 -1.729064 -74.041300 -3.653156 -84.961051 -116.982371 -59.685519 0.000002 0.000009 -0.000000 0.060910 -7.898607 0.214805 -0.000008 0.000003 -3.019388 -5.000185 -7.998992 0.000131 10.423664 66.259194 -10.789652 -59.975754 109.341104 44.221636 -0.000001 -0.000001 -0.000001 7.569910 9.824968 -0.001064 -0.000002 -0.000008 3.000001 -5.000200 7.998804 -0.000148 2.263256 -173.465058 2.709390 -179.999991 0.000006 -1.187997 174.679506 -3.699042 -0.633236 -0.000006 -0.000005 0.059299 68.592462 6.936975 2.054376 25.456940 -7.348747 -0.000003 1.642994 172.504050 -1.203357 -0.000005 -0.000005 -1.286810 -8.671835 3.012389 0.948511 -0.000001 0.000002 -0.102213 67.967595 -6.978461 -1.964242 25.456912 7.350043 -0.000003 
